<?xml version="1.0" encoding="UTF-8"?><svg id="Extended" xmlns="http://www.w3.org/2000/svg" viewBox="0 0 1724.92133 1240"><defs><style>.cls-1{fill:#757575;}.cls-2{opacity:.1;}.cls-2,.cls-3,.cls-4,.cls-5{fill:#76b900;}.cls-3{opacity:.2;}.cls-4{opacity:.15;}.cls-6{isolation:isolate;}.cls-7{fill:#76b900;}.cls-5{opacity:.3;}.cls-8{fill:none;stroke:#000;stroke-miterlimit:10;stroke-width:4px;}</style></defs><path d="M562.19747,139.40012v-33.56543h6.3584v4.98242c1.00488-1.83594,2.34863-3.27734,4.03223-4.32715,1.68164-1.04883,3.65918-1.57324,5.93262-1.57324h.58984c5.06934,0,8.56543,2.07617,10.48926,6.22852,1.04883-1.92285,2.48047-3.44238,4.29395-4.55664s3.92188-1.67188,6.32617-1.67188h.58984c3.67188,0,6.56641,1.18066,8.68652,3.54004,2.11914,2.36035,3.17969,5.76953,3.17969,10.22754v20.71582h-7.21094v-19.73242c0-2.75391-.51465-4.86133-1.54102-6.32617-1.02734-1.46387-2.65527-2.19629-4.88379-2.19629h-.52441c-1.22461,0-2.41504.34961-3.57324,1.04883s-2.09766,1.76953-2.81836,3.21191c-.72168,1.44238-1.08203,3.27832-1.08203,5.50684v18.4873h-7.21094v-19.73242c0-2.75391-.51465-4.86133-1.54102-6.32617-1.02734-1.46387-2.65527-2.19629-4.88379-2.19629h-.52441c-1.22461,0-2.41602.34961-3.57324,1.04883-1.1582.69922-2.09766,1.76953-2.81836,3.21191-.72168,1.44238-1.08203,3.27832-1.08203,5.50684v18.4873h-7.21094Z"/><path d="M630.96603,140.25266c-3.58398,0-6.35938-.88574-8.32617-2.65527-1.9668-1.77051-2.9502-4.25-2.9502-7.44043,0-2.75391.86328-5.00391,2.58984-6.75293,1.72559-1.74707,4.25-2.83984,7.57227-3.27734l11.86523-1.57422v-.26172c0-4.98242-2.22852-7.47363-6.68652-7.47363h-.72168c-1.87891,0-3.44141.33887-4.68652,1.0166-1.24609.67773-2.26172,1.8252-3.04883,3.44141l-5.57227-2.88477c1.00488-2.31543,2.65527-4.13965,4.94922-5.47363,2.29492-1.33301,5.08105-2,8.3584-2h.9834c4.45801,0,7.84473,1.12598,10.16211,3.37695,2.31543,2.25098,3.47461,5.53906,3.47461,9.86621v21.24023h-6.35938v-5.11328c-1.00586,1.83496-2.49121,3.28906-4.45801,4.35938s-4.19531,1.60645-6.68652,1.60645h-.45898ZM641.717,123.60129l-8.91602,1.31055c-2.27246.30664-3.85742.80957-4.75293,1.50781-.89551.7002-1.34375,1.79297-1.34375,3.27832,0,1.48633.51367,2.6543,1.54102,3.50684,1.02637.85254,2.47949,1.27832,4.35938,1.27832h.65527c2.57812,0,4.63281-.79688,6.16309-2.39258,1.5293-1.59473,2.29395-3.72559,2.29395-6.3916v-2.09766Z"/><path d="M678.10177,139.40012l-7.86719-11.99707-7.86621,11.99707h-8.12988l11.80078-17.11035-11.3418-16.45508h8.45703l7.47363,11.40723,7.47363-11.40723h8.06348l-11.40723,16.52051,11.86621,17.04492h-8.52246Z"/><path d="M703.40646,139.40012l1.04883-5.50684,20.32227-22.1582h-15.66797l1.11426-5.90039h24.97754l-.9834,5.44141-20.32227,22.22363h16.32324l-1.17969,5.90039h-25.63281Z"/><path d="M756.17892,113.96359v-6.16211h29.36914v6.16211h-29.36914ZM756.17892,126.68234v-6.16309h29.36914v6.16309h-29.36914Z"/><path d="M831.89669,139.40012v-9.30957h-22.48633v-5.50684l22.4209-30.28711h6.88379v29.7627h6.09668l-.91797,6.03125h-5.17871v9.30957h-6.81836ZM831.89669,124.0593v-20.32227l-15.07812,20.32227h15.07812Z"/><path d="M844.41818,139.40012l14.88086-17.50391-7.73535-16.06152h7.73535l5.11426,11.3418,9.1123-11.3418h8.58789l-14.35742,16.97949,7.99805,16.58594h-7.73535l-5.37598-11.93164-9.63672,11.93164h-8.58789Z"/><path d="M901.7795,120.25754v-6.16211h11.3418v-11.47266h6.68652v11.47266h11.34082v6.16211h-11.34082v11.40723h-6.68652v-11.40723h-11.3418Z"/><path d="M971.79415,140.18723c-3.93359,0-7.22266-.72168-9.86621-2.16406-2.64551-1.44238-4.51367-3.49609-5.60547-6.16211l6.03125-2.75293c1.31152,3.19043,4.34863,4.78516,9.1123,4.78516h.52441c2.70996,0,4.89453-.69824,6.55566-2.09766,1.66113-1.39844,2.49121-3.23438,2.49121-5.50684v-.9834c0-2.44727-.875-4.41406-2.62207-5.90039-1.74805-1.48535-4.08691-2.22852-7.01465-2.22852h-.58984c-3.10352,0-6.03125.91797-8.78516,2.75293l-4.32617-1.9668,1.04883-23.66602h27.0752v6.49023h-20.97852l-.52441,12.3252c2.36035-1.39844,5.2002-2.09863,8.52246-2.09863h.7207c2.92773,0,5.49609.59082,7.70312,1.77051s3.93359,2.83008,5.17969,4.94922c1.24512,2.12109,1.86816,4.55664,1.86816,7.30957v1.24609c0,2.79688-.65625,5.23438-1.9668,7.30957-1.31152,2.07617-3.13672,3.69336-5.47461,4.85156-2.33789,1.15723-5.10254,1.7373-8.29297,1.7373h-.78613Z"/><path d="M990.08321,152.51145l1.17969-6.09668h2.22949c1.66016,0,3.00391-.38281,4.03125-1.14746,1.02637-.76465,2.13086-2.19629,3.31055-4.29395l1.11523-2.03223-5.7041-33.10645h7.34277l3.40918,25.56738,13.0459-25.56738h7.66992l-19.92969,36.31836c-1.48633,2.75391-2.90723,4.88477-4.26074,6.39258-1.35547,1.50781-2.88477,2.54492-4.58887,3.11328-1.70508.56836-3.84668.85254-6.4248.85254h-2.42578Z"/><path d="M574.3254,212.99387c-7.60449,0-12.45605-2.55664-14.55371-7.6709l5.6377-2.88379c.74219,1.57324,1.82422,2.73145,3.24512,3.47461,1.41992.74316,3.33203,1.11426,5.73633,1.11426h.78613c4.50098,0,6.75293-1.33301,6.75293-3.99902v-.2627c0-2.27148-1.4209-3.60547-4.26172-3.99902l-7.14551-.9834c-3.10352-.43555-5.49609-1.45215-7.17871-3.04785-1.68262-1.59473-2.52344-3.72559-2.52344-6.3916v-.72168c0-3.01562,1.17969-5.42969,3.54004-7.24414,2.36035-1.8125,5.50684-2.7207,9.44043-2.7207h.91699c3.23438,0,6.00879.65625,8.32617,1.9668,2.31641,1.31152,3.95508,3.125,4.91699,5.44141l-5.76953,2.55664c-1.17969-2.66504-3.69336-3.99902-7.53906-3.99902h-.78613c-1.92383,0-3.4209.35059-4.49121,1.04883-1.07129.7002-1.60547,1.66211-1.60547,2.88477v.32812c0,1.00586.31641,1.80273.9502,2.39258.63281.58984,1.69336.99414,3.17969,1.21289l7.27637.9834c3.10352.4375,5.49609,1.51855,7.17871,3.24512,1.68164,1.72656,2.52441,3.94434,2.52441,6.6543v.7207c0,3.23438-1.15918,5.69336-3.47461,7.375-2.31738,1.68164-5.7041,2.52441-10.16113,2.52441h-.91797Z"/><path d="M595.04122,212.14133v-8.32617h7.86621v8.32617h-7.86621Z"/><path d="M625.72091,212.99387c-4.89551,0-8.77441-1.43164-11.63672-4.29395-2.86328-2.8623-4.29395-6.95996-4.29395-12.29199v-2.16406c0-3.49609.66602-6.47852,1.99902-8.94824,1.33301-2.46875,3.20117-4.35938,5.60547-5.6709,2.40332-1.31055,5.17871-1.9668,8.32617-1.9668h.65527c3.10254,0,5.73633.74414,7.89941,2.22949,2.16309,1.48633,3.72559,3.45312,4.6875,5.90039l-5.76953,2.55664c-.65527-1.35449-1.54004-2.43652-2.6543-3.24512-1.11523-.80859-2.50293-1.21289-4.16309-1.21289h-.58984c-2.5791,0-4.6875.85156-6.32617,2.55664-1.63965,1.7041-2.45898,4.26074-2.45898,7.66992v2.42578c0,3.54004.79688,6.14062,2.39258,7.80078,1.5957,1.66211,3.72559,2.49121,6.39258,2.49121h.58984c1.74707,0,3.21191-.38184,4.39258-1.14648,1.17969-.76465,2.09766-1.80273,2.75293-3.11426l5.6377,2.9502c-.96191,2.18555-2.55664,3.97754-4.78516,5.37598-2.22949,1.39746-4.89551,2.09766-7.99805,2.09766h-.65527Z"/><path d="M645.45333,212.14133v-8.32617h7.86621v8.32617h-7.86621Z"/><path d="M678.23068,212.14133v-6.22754c0-6.55566,2.90527-11.36328,8.71875-14.42285l8.25977-4.32715c3.93359-2.09766,5.90039-4.69727,5.90039-7.80078v-.78711c0-1.79102-.68848-3.24512-2.06445-4.35938-1.37695-1.11426-3.1582-1.67188-5.34375-1.67188h-.39258c-2.4043,0-4.30566.44922-5.7041,1.34375-1.39941.89648-2.44824,2.32715-3.14648,4.29395l-6.22754-2.75293c2.22852-6.11816,7.25391-9.17773,15.07812-9.17773h.7207c4.37012,0,7.85547,1.10352,10.45605,3.31055s3.90137,5.12402,3.90137,8.75195v1.11426c0,2.92871-.75391,5.4082-2.26172,7.44043s-4.01074,3.98926-7.50684,5.86719l-7.66992,4.06445c-3.27832,1.70508-4.93945,4.65527-4.98242,8.85059h22.61719v6.49023h-30.35254Z"/><path d="M711.13985,212.14133l14.88086-17.50391-7.73535-16.06152h7.73535l5.11426,11.3418,9.1123-11.3418h8.58789l-14.35742,16.97949,7.99805,16.58594h-7.73535l-5.37598-11.93164-9.63672,11.93164h-8.58789Z"/><path d="M768.50118,192.99875v-6.16211h11.3418v-11.47266h6.68652v11.47266h11.34082v6.16211h-11.34082v11.40723h-6.68652v-11.40723h-11.3418Z"/><path d="M817.47189,225.25266l1.17969-6.09668h2.22949c1.66016,0,3.00391-.38281,4.03125-1.14746,1.02637-.76465,2.13086-2.19629,3.31055-4.29395l1.11523-2.03223-5.7041-33.10645h7.34277l3.40918,25.56738,13.0459-25.56738h7.66992l-19.92969,36.31836c-1.48633,2.75391-2.90723,4.88477-4.26074,6.39258-1.35547,1.50781-2.88477,2.54492-4.58887,3.11328-1.70508.56836-3.84668.85254-6.4248.85254h-2.42578Z"/><path d="M871.62032,192.99973v-3.86719l30.41602-12.58594v4.32617l-25.04102,10.16113v.13086l25.04102,10.09473v4.39258l-30.41602-12.65234ZM871.75118,212.14133v-3.80176h30.28516v3.80176h-30.28516Z"/><path d="M942.15939,212.92844c-5.20117,0-9.21094-1.1582-12.0293-3.47461-2.81934-2.31641-4.22852-5.48438-4.22852-9.50586v-1.04883c0-2.27246.55664-4.32715,1.67188-6.16309,1.11426-1.83496,2.67578-3.25488,4.68652-4.26074-1.7041-.96094-2.99414-2.25098-3.86719-3.86816-.875-1.61621-1.31152-3.38672-1.31152-5.30957v-.9834c0-3.67188,1.37695-6.59863,4.12988-8.78516,2.75391-2.18457,6.44629-3.27734,11.0791-3.27734h.78711c4.67578,0,8.37988,1.09277,11.1123,3.27734,2.73047,2.18652,4.09668,5.11328,4.09668,8.78516v.9834c0,1.92285-.44824,3.69336-1.34375,5.30957-.89648,1.61719-2.19629,2.90723-3.90039,3.86816,2.05371,1.00586,3.63867,2.41504,4.75293,4.22852s1.67188,3.87891,1.67188,6.19531v1.04883c0,4.02148-1.41016,7.18945-4.22852,9.50586-2.81934,2.31641-6.85059,3.47461-12.0957,3.47461h-.9834ZM942.35665,206.63449h.65527c2.97168,0,5.2334-.64453,6.78516-1.93359,1.55078-1.28906,2.32715-2.9834,2.32715-5.08105v-.91797c0-2.05371-.77637-3.72559-2.32715-5.01465-1.55176-1.28906-3.81348-1.93457-6.78516-1.93457h-.65527c-2.97266,0-5.24512.64551-6.81836,1.93457s-2.36035,2.96094-2.36035,5.01465v.91797c0,2.09766.78711,3.79199,2.36035,5.08105s3.8457,1.93359,6.81836,1.93359ZM942.42208,185.85324h.45898c2.57812,0,4.57715-.5791,5.99805-1.7373,1.41992-1.1582,2.13086-2.67676,2.13086-4.55664v-.78613c0-1.92285-.71094-3.45215-2.13086-4.58984-1.4209-1.13574-3.41992-1.7041-5.99805-1.7041h-.45898c-2.53516,0-4.52344.56836-5.96582,1.7041-1.44238,1.1377-2.16406,2.66699-2.16406,4.58984v.78613c0,1.87988.72168,3.39844,2.16406,4.55664s3.43066,1.7373,5.96582,1.7373Z"/><path d="M671.87325,284.88352l14.88086-17.50391-7.73535-16.06152h7.73535l5.11426,11.3418,9.1123-11.3418h8.58789l-14.35742,16.97949,7.99805,16.58594h-7.73535l-5.37598-11.93164-9.63672,11.93164h-8.58789Z"/><path d="M727.20235,265.74094v-6.16211h11.3418v-11.47266h6.68652v11.47266h11.34082v6.16211h-11.34082v11.40723h-6.68652v-11.40723h-11.3418Z"/><path d="M782.53146,284.88352v-6.22754c0-6.55566,2.90527-11.36328,8.71875-14.42285l8.25977-4.32715c3.93359-2.09766,5.90039-4.69727,5.90039-7.80078v-.78711c0-1.79102-.68848-3.24512-2.06445-4.35938-1.37695-1.11426-3.1582-1.67188-5.34375-1.67188h-.39258c-2.4043,0-4.30566.44922-5.7041,1.34375-1.39941.89648-2.44824,2.32715-3.14648,4.29395l-6.22754-2.75293c2.22852-6.11816,7.25391-9.17773,15.07812-9.17773h.7207c4.37012,0,7.85547,1.10352,10.45605,3.31055s3.90137,5.12402,3.90137,8.75195v1.11426c0,2.92871-.75391,5.4082-2.26172,7.44043s-4.01074,3.98926-7.50684,5.86719l-7.66992,4.06445c-3.27832,1.70508-4.93945,4.65527-4.98242,8.85059h22.61719v6.49023h-30.35254Z"/><path d="M815.50607,297.99484l1.17969-6.09668h2.22949c1.66016,0,3.00391-.38281,4.03125-1.14746,1.02637-.76465,2.13086-2.19629,3.31055-4.29395l1.11523-2.03223-5.7041-33.10645h7.34277l3.40918,25.56738,13.0459-25.56738h7.66992l-19.92969,36.31836c-1.48633,2.75391-2.90723,4.88477-4.26074,6.39258-1.35547,1.50781-2.88477,2.54492-4.58887,3.11328-1.70508.56836-3.84668.85254-6.4248.85254h-2.42578Z"/><path d="M871.68771,265.74191v-3.86719l30.41602-12.58594v4.32617l-25.04004,10.16113v.13086l25.04004,10.09473v4.39258l-30.41602-12.65234ZM871.81954,284.88352v-3.80176h30.28418v3.80176h-30.28418Z"/><path d="M935.47482,284.88352v-5.11328c0-3.01562.38184-5.84473,1.14648-8.49023.76465-2.64355,2.08691-5.62598,3.9668-8.94824l8.98145-16.06152h-22.1582v-6.49023h30.94238v5.6377l-11.0791,19.53613c-1.57324,2.75391-2.69922,5.2998-3.37598,7.6377-.67773,2.33887-1.0166,4.84082-1.0166,7.50586v4.78613h-7.40723Z"/><path d="M671.93868,370.73606l1.17969-6.09668h2.22949c1.66016,0,3.00391-.38281,4.03125-1.14746,1.02637-.76465,2.13086-2.19629,3.31055-4.29395l1.11523-2.03223-5.7041-33.10645h7.34277l3.40918,25.56738,13.0459-25.56738h7.66992l-19.92969,36.31836c-1.48633,2.75391-2.90723,4.88477-4.26074,6.39258-1.35547,1.50781-2.88477,2.54492-4.58887,3.11328-1.70508.56836-3.84668.85254-6.4248.85254h-2.42578Z"/><path d="M726.08712,338.4841v-3.86816l30.41602-12.58594v4.32617l-25.04102,10.16113v.13086l25.04102,10.09473v4.39258l-30.41602-12.65137ZM726.21798,357.62473v-3.80176h30.28516v3.80176h-30.28516Z"/><path d="M795.97189,358.41184c-8.21777,0-13.41797-2.62305-15.60254-7.86719l6.09668-2.75391c1.22266,2.88477,4.32617,4.32715,9.30859,4.32715h.45898c2.84082,0,5.05859-.63281,6.6543-1.90137,1.59473-1.2666,2.39258-2.97168,2.39258-5.11328v-.91797c0-2.14062-.78613-3.83496-2.35938-5.08008-1.57324-1.24609-3.71582-1.86914-6.4248-1.86914h-6.55566v-6.16211h6.75195c4.98242,0,7.47363-2.05371,7.47363-6.16211v-.78711c0-1.87793-.7207-3.36426-2.16309-4.45801-1.44238-1.0918-3.40918-1.63867-5.90039-1.63867h-.39355c-4.63281,0-7.53906,1.55176-8.71875,4.6543l-6.09668-2.81836c1.13574-2.62207,3.00391-4.63184,5.60449-6.03125,2.60059-1.39844,5.82422-2.09766,9.66992-2.09766h.72168c2.92676,0,5.47363.50293,7.63672,1.50781,2.16406,1.00586,3.85742,2.4248,5.08105,4.26074,1.22266,1.83594,1.83594,3.97754,1.83594,6.4248v.9834c0,1.83594-.44922,3.55078-1.34473,5.14648s-2.17383,2.87402-3.83496,3.83496c1.9668,1.04883,3.51758,2.45801,4.65527,4.22852,1.13574,1.76953,1.7041,3.74805,1.7041,5.93262v1.04883c0,4.1084-1.39941,7.35352-4.19531,9.73535-2.79785,2.38281-6.66602,3.57324-11.60352,3.57324h-.85254Z"/><path d="M671.87325,430.36594l14.88086-17.50391-7.73535-16.06152h7.73535l5.11426,11.3418,9.1123-11.3418h8.58789l-14.35742,16.97949,7.99805,16.58594h-7.73535l-5.37598-11.93164-9.63672,11.93164h-8.58789Z"/><path d="M707.07638,440.98606l-1.04883-3.40918,2.09766-.78613c1.04883-.4375,1.81348-.99512,2.29492-1.67188.48047-.67773.87305-1.75977,1.17969-3.24512l.32812-1.50781h-3.80273l1.57324-8.32617h7.93262l-2.03223,10.42383c-.4375,2.05371-1.13672,3.64844-2.09766,4.78613-.96191,1.13574-2.53516,2.14062-4.7207,3.01562l-1.7041.7207Z"/><path d="M716.45138,443.47727l1.17969-6.09668h2.22949c1.66016,0,3.00391-.38281,4.03125-1.14746,1.02637-.76465,2.13086-2.19629,3.31055-4.29395l1.11523-2.03223-5.7041-33.10645h7.34277l3.40918,25.56738,13.0459-25.56738h7.66992l-19.92969,36.31836c-1.48633,2.75391-2.90723,4.88477-4.26074,6.39258-1.35547,1.50781-2.88477,2.54492-4.58887,3.11328-1.70508.56836-3.84668.85254-6.4248.85254h-2.42578Z"/><path d="M772.63204,423.87668v-4.39258l25.04102-10.09473v-.13086l-25.04102-10.16113v-4.32617l30.41602,12.58594v3.86719l-30.41602,12.65234ZM772.63204,430.36594v-3.80176h30.28516v3.80176h-30.28516Z"/><path d="M843.36935,431.15305c-5.5957,0-9.88965-1.80371-12.88281-5.40918-2.99414-3.60547-4.49023-8.70801-4.49023-15.30762v-5.24414c0-6.64258,1.49609-11.75684,4.49023-15.34082,2.99316-3.58301,7.28711-5.375,12.88281-5.375h.65527c5.6377,0,9.95312,1.79199,12.94727,5.375,2.99316,3.58398,4.49121,8.69824,4.49121,15.34082v5.24414c0,6.59961-1.49805,11.70215-4.49121,15.30762-2.99414,3.60547-7.30957,5.40918-12.94727,5.40918h-.65527ZM843.36935,424.66281h.65527c3.32031,0,5.82324-1.22363,7.50586-3.67188,1.68262-2.44727,2.52441-5.9873,2.52441-10.62012v-5.11328c0-4.67578-.8418-8.22754-2.52441-10.65332s-4.18555-3.6377-7.50586-3.6377h-.65527c-3.32227,0-5.8252,1.21191-7.50684,3.6377-1.68262,2.42578-2.52344,5.97754-2.52344,10.65332v5.11328c0,4.63281.84082,8.17285,2.52344,10.62012,1.68164,2.44824,4.18457,3.67188,7.50684,3.67188Z"/><path d="M868.54122,440.98606l-2.42578-3.34375,2.16406-1.57324c.96094-.65527,1.63867-1.28906,2.03223-1.90039.39355-.61328.58984-1.63965.58984-3.08203v-.7207h-3.60547v-8.32617h7.86621v9.17871c0,1.5293-.1748,2.77441-.52441,3.73633-.34961.96094-.87402,1.79199-1.57324,2.49121-.69922.69824-1.5957,1.44238-2.6875,2.22949l-1.83594,1.31055Z"/><path d="M900.40157,390.83469v-7.53906h7.47363v7.53906h-7.47363ZM900.53341,430.36594v-33.56543h7.21094v33.56543h-7.21094Z"/><path d="M917.25021,430.36594v-33.56543h6.3584v5.04785c1.04883-1.83496,2.48047-3.28809,4.29395-4.35938,1.81348-1.07031,3.9668-1.60645,6.45801-1.60645h.65527c3.80176,0,6.83984,1.18066,9.1123,3.54004,2.27246,2.36035,3.40918,5.76953,3.40918,10.22754v20.71582h-7.21191v-19.73242c0-2.75391-.58984-4.86133-1.76953-6.32617-1.17969-1.46387-2.97266-2.19629-5.37598-2.19629h-.45898c-1.39844,0-2.73145.34961-3.99902,1.04883s-2.29395,1.76953-3.08105,3.21191c-.78613,1.44238-1.17969,3.27832-1.17969,5.50684v18.4873h-7.21094Z"/><path d="M971.13693,430.69406c-4.23926,0-7.25488-.95117-9.04688-2.85254-1.79199-1.90039-2.6875-4.62109-2.6875-8.16113v-16.91406h-7.08008v-5.96582h7.08008v-9.89941h7.21094v9.89941h10.94824l-.85156,5.96582h-10.09668v16.58594c0,1.87988.43652,3.22363,1.31152,4.03223.87402.80859,2.18457,1.21289,3.93359,1.21289h5.70312v6.09668h-6.4248Z"/><path d="M998.40939,431.21848c-4.89551,0-8.70898-1.43164-11.43945-4.29395-2.73242-2.8623-4.09766-6.93848-4.09766-12.22656v-2.16406c0-5.2002,1.39844-9.27539,4.19531-12.22559s6.57715-4.42578,11.3418-4.42578h.58984c4.54492,0,8.13965,1.4209,10.78418,4.26172,2.64355,2.8418,3.96582,6.66504,3.96582,11.47266v3.99902h-23.79688c.13086,3.27734.92773,5.72559,2.39258,7.3418,1.46387,1.61719,3.48535,2.42578,6.06445,2.42578h.9834c1.9668,0,3.59375-.33789,4.88379-1.01562,1.28906-.67773,2.32715-1.69336,3.11426-3.04883l5.24414,3.40918c-1.17969,2.01074-2.90723,3.59473-5.17871,4.75293-2.27344,1.15723-4.96094,1.7373-8.06348,1.7373h-.9834ZM990.01778,410.56809h16.7168v-.45898c0-2.70996-.6875-4.77441-2.06445-6.19531-1.37695-1.41992-3.28906-2.13086-5.73633-2.13086h-.52441c-2.4043,0-4.33789.74414-5.80176,2.22949-1.46484,1.48535-2.32715,3.6709-2.58984,6.55566Z"/><path d="M1034.66134,444.39524c-3.32129,0-6.06348-.52441-8.22754-1.57324-2.16309-1.04883-3.85742-2.60059-5.08008-4.6543l5.17871-3.86816c.87402,1.44238,1.95508,2.47949,3.24512,3.11426,1.28906.63281,3.00488.9502,5.14648.9502h.85254c5.59375,0,8.39062-3.16895,8.39062-9.50586v-3.47461c-2.27246,3.19043-5.6377,4.78613-10.0957,4.78613h-.45898c-2.84082,0-5.33203-.67773-7.47363-2.03223s-3.80176-3.25586-4.98242-5.7041c-1.17969-2.44727-1.76953-5.28711-1.76953-8.52246v-1.76953c0-3.23438.58984-6.07422,1.76953-8.52246,1.18066-2.44727,2.84082-4.34863,4.98242-5.7041,2.1416-1.35352,4.63281-2.03223,7.47363-2.03223h.45898c5.15625,0,8.82812,1.9668,11.01367,5.90039v-4.98242h6.35938v31.86133c0,5.02539-1.33398,8.9043-3.99902,11.63574-2.66699,2.73145-6.46875,4.09766-11.40723,4.09766h-1.37695ZM1035.18575,424.00656h.59082c2.57812,0,4.64258-.92773,6.19434-2.78613,1.55078-1.85645,2.32715-4.31543,2.32715-7.375v-1.63867c0-3.10254-.77637-5.56152-2.32715-7.375-1.55176-1.81348-3.61621-2.7207-6.19434-2.7207h-.59082c-2.66602,0-4.76367.88477-6.29297,2.65527-1.53027,1.76953-2.29492,4.20605-2.29492,7.30957v1.83496c0,3.10352.76465,5.5625,2.29492,7.375,1.5293,1.81445,3.62695,2.7207,6.29297,2.7207Z"/><path d="M1074.38888,431.21848c-4.89551,0-8.70898-1.43164-11.43945-4.29395-2.73242-2.8623-4.09766-6.93848-4.09766-12.22656v-2.16406c0-5.2002,1.39844-9.27539,4.19531-12.22559s6.57715-4.42578,11.3418-4.42578h.58984c4.54492,0,8.13965,1.4209,10.78418,4.26172,2.64355,2.8418,3.96582,6.66504,3.96582,11.47266v3.99902h-23.79688c.13086,3.27734.92773,5.72559,2.39258,7.3418,1.46387,1.61719,3.48535,2.42578,6.06445,2.42578h.9834c1.9668,0,3.59375-.33789,4.88379-1.01562,1.28906-.67773,2.32715-1.69336,3.11426-3.04883l5.24414,3.40918c-1.17969,2.01074-2.90723,3.59473-5.17871,4.75293-2.27344,1.15723-4.96094,1.7373-8.06348,1.7373h-.9834ZM1065.99728,410.56809h16.7168v-.45898c0-2.70996-.6875-4.77441-2.06445-6.19531-1.37695-1.41992-3.28906-2.13086-5.73633-2.13086h-.52441c-2.4043,0-4.33789.74414-5.80176,2.22949-1.46484,1.48535-2.32715,3.6709-2.58984,6.55566Z"/><path d="M1097.20235,430.36594v-33.56543h6.3584v6.35938c.83008-2.05371,2-3.69336,3.50781-4.91699,1.50781-1.22266,3.61523-1.83594,6.32617-1.83594h3.40918v6.6875h-3.34375c-1.57324,0-3.04883.34961-4.4248,1.04883-1.37695.69922-2.49121,1.80273-3.34375,3.31055s-1.27832,3.50684-1.27832,5.99805v16.91406h-7.21094Z"/><path d="M1135.09396,431.21848c-7.60449,0-12.45605-2.55664-14.55371-7.6709l5.6377-2.88379c.74219,1.57324,1.82422,2.73145,3.24512,3.47461,1.41992.74316,3.33203,1.11426,5.73633,1.11426h.78613c4.50098,0,6.75293-1.33301,6.75293-3.99902v-.2627c0-2.27148-1.4209-3.60547-4.26172-3.99902l-7.14551-.9834c-3.10352-.43555-5.49609-1.45215-7.17871-3.04785-1.68262-1.59473-2.52344-3.72559-2.52344-6.3916v-.72168c0-3.01562,1.17969-5.42969,3.54004-7.24414,2.36035-1.8125,5.50684-2.7207,9.44043-2.7207h.91699c3.23438,0,6.00879.65625,8.32617,1.9668,2.31641,1.31152,3.95508,3.125,4.91699,5.44141l-5.76953,2.55664c-1.17969-2.66504-3.69336-3.99902-7.53906-3.99902h-.78613c-1.92383,0-3.4209.35059-4.49121,1.04883-1.07129.7002-1.60547,1.66211-1.60547,2.88477v.32812c0,1.00586.31641,1.80273.9502,2.39258.63281.58984,1.69336.99414,3.17969,1.21289l7.27637.9834c3.10352.4375,5.49609,1.51855,7.17871,3.24512,1.68164,1.72656,2.52441,3.94434,2.52441,6.6543v.7207c0,3.23438-1.15918,5.69336-3.47461,7.375-2.31738,1.68164-5.7041,2.52441-10.16113,2.52441h-.91797Z"/><path class="cls-2" d="M642.34876,766.9152s50.59114-27.31285,105.56395-44.38893c54.97281-17.07608,88.51703-49.19048,88.51703-49.19048h0l97.21106,201.69924-198.09324-109.72684-93.1988,1.60701h0Z"/><path class="cls-3" d="M506.46599,765.30819h587.37616s45.71533,133.95902-64.34766,314.29594c-67.31393,110.2931-274.84508,45.73175-281.58179,45.73175s-62.74907-30.02611-107.86311-66.55096c-45.11404-36.52485-53.14102-78.80554-74.88226-87.50204-21.74124-8.6965-59.78842-54.17794-58.70136-115.14101s0-90.83369,0-90.83369Z"/><g class="cls-6"><path d="M567.80001,646.00949v-6.78906h2.33594c2.19043,0,3.85645-.42578,5-1.27734s2.12891-2.49414,2.95703-4.92676l.58398-1.60645-14.67285-37.37598h8.61426l10.21973,28.76172,9.41699-28.76172h8.10352l-14.16211,38.83594c-1.2666,3.55176-2.56836,6.27832-3.90625,8.17578-1.33887,1.89844-2.91992,3.2002-4.74414,3.90527-1.82617.70508-4.15039,1.05859-6.97266,1.05859h-2.77344Z"/></g><g class="cls-6"><path d="M1220.84298,1096.16184l-8.75977-13.35938-8.75977,13.35938h-9.05273l13.14062-19.05273-12.62891-18.32324h9.41602l8.32227,12.70215,8.32227-12.70215h8.97852l-12.70117,18.39551,13.21289,18.98047h-9.49023Z"/></g><path class="cls-4" d="M735.54756,765.30819l-60.03678-33.50667s-136.00563,74.28022-60.52915,251.67658c54.68892,128.53826,128.44236,121.92717,154.50313,121.92717s71.95092,19.28908,137.94939-9.24438c23.08241-9.97933,47.81311-37.37598,99.16866-85.80737,43.17994-40.7213,36.71307-71.96314,27.52655-78.40601l.00011-.00005-298.5819-166.63928Z"/><path class="cls-2" d="M638.04961,1036.51575s57.62449,83.53746,132.23672,94.25827c74.61223,10.72081,290.87557,8.84929,290.87557,8.84929l-63.40094-120.16371-359.71136.71602v16.34013Z"/><polygon class="cls-5" points="642.34876 766.9152 735.54756 765.30819 933.64081 875.03503 997.76096 1019.4596 638.04961 1020.17562 642.34876 766.9152"/><line class="cls-8" x1="640.04952" y1="1081.54709" x2="640.04952" y2="546.37107"/><polygon points="657.00314 551.33176 640.05148 521.9736 623.09786 551.33176 657.00314 551.33176"/><line class="cls-8" x1="596.25411" y1="1020.17551" x2="1246.63009" y2="1020.17551"/><polygon points="1241.66964 1037.12912 1271.02755 1020.17722 1241.66964 1003.22385 1241.66964 1037.12912"/><line class="cls-8" x1="438.25964" y1="765.30819" x2="1139.55749" y2="765.30819"/><line class="cls-8" x1="654.38974" y1="720.01381" x2="1142.21443" y2="992.26994"/><polyline class="cls-8" points="827.57284 654.95896 1061.16191 1139.62331 1070.12214 1158.21454"/><circle class="cls-7" cx="967.63892" cy="915.60734" r="16.34013"/><circle class="cls-1" cx="638.04961" cy="706.18614" r="16.34013"/><circle class="cls-1" cx="747.91271" cy="706.18614" r="16.34013"/><circle class="cls-1" cx="857.77582" cy="706.18614" r="16.34013"/><circle class="cls-1" cx="967.63892" cy="706.18614" r="16.34013"/><circle class="cls-1" cx="1077.50203" cy="706.18614" r="16.34013"/><circle class="cls-1" cx="638.04961" cy="806.08174" r="16.34013"/><circle class="cls-1" cx="747.91271" cy="806.08174" r="16.34013"/><circle class="cls-1" cx="857.77582" cy="806.08174" r="16.34013"/><circle class="cls-1" cx="967.63892" cy="806.08174" r="16.34013"/><circle class="cls-1" cx="1077.50203" cy="806.08174" r="16.34013"/><circle class="cls-1" cx="638.04961" cy="915.60734" r="16.34013"/><circle class="cls-1" cx="747.91271" cy="915.60734" r="16.34013"/><circle class="cls-1" cx="857.77582" cy="915.60734" r="16.34013"/><circle class="cls-1" cx="1077.50203" cy="915.60734" r="16.34013"/><circle class="cls-1" cx="638.04961" cy="1020.17562" r="16.34013"/><circle class="cls-1" cx="747.91271" cy="1020.17562" r="16.34013"/><circle class="cls-1" cx="857.77582" cy="1020.17562" r="16.34013"/><circle class="cls-1" cx="967.63892" cy="1020.17562" r="16.34013"/><circle class="cls-1" cx="1077.50203" cy="1020.17562" r="16.34013"/></svg>